<?xml version="1.0" encoding="UTF-8"?>
<!-- Created with Inkscape (http://www.inkscape.org/) -->
<svg width="126.55mm" height="58.454mm" version="1.1" viewBox="0 0 126.55 58.454" xml:space="preserve" xmlns="http://www.w3.org/2000/svg"><g transform="translate(-41.725 -93.854)"><g transform="matrix(.26458 0 0 .26458 -30.485 21.464)" fill="#fff" style="font-variant-ligatures:normal"><path class="c1" d="m306.43 273.6 73.32 98.94v36.44l-88.65-117.95-0.18-0.24-6.9-9.18c-3.75-4.68-7.29-8.01-11.1-8.01zm-16.08 117.95h-1.35c0 8.88-7.2 17.43-16.08 17.43h33.51c-8.88 0-16.08-8.55-16.08-17.43zm106.83-117.95h-33.5c8.88 0 16.07 8.55 16.07 17.43h1.36c0-8.88 7.2-17.43 16.07-17.43z" aria-label="N"/><path class="c1" d="m504.49 396.22a48.74 48.74 0 1 1-34.46-83.2c-5.4 0-19.4 14.84-19.4 40.86s15.63 56.11 53.86 42.34zm-17.94-35.73-20.39 1.27h47.04c0-30.26-20.18-48.74-39.03-48.74 13.2 3.53 12.45 35.4 12.38 47.47z" aria-label="e"/><g aria-label="^a"><path class="c1" d="m594.82 407.48c-4.98-0.04-9.41-3.25-12.01-7.33-4.69-7.37-4.84-17.4-2.74-25.64a40.04 40.04 0 0 1 13.25-21.07c-18.88 1.4-42.22 14.74-42.22 34.51 0 25.52 31.8 25.06 43.72 19.53zm38.45 9.7v-68.58c0-27.13-19.25-39.21-40-35.61 5.1 0 15.63 5.16 15.63 16.01v82.41c0 52.3 34.7 83.12 84.03 83.12-46.74 0-59.66-58.43-59.66-77.35zm28.2 14.7c35.68-5.44 59.38 20.66 59.38 39.37 0 18.7-17.61 23.28-23.05 23.28 14.57 0 42.2-9.36 42.2-33.5s-31.45-41.14-78.53-29.15zm-58.25 14 3.33-0.77c-0.97 0.19-2.11 0.46-3.33 0.78zm-177.73-13.33c-2.69 21.76 9.94 49.11 48.5 49.11 32.9 0 104.76-29.5 129.23-35.77-49.36 11.47-98.49 19.44-123.45 19.44-30.37 0-54.63-15.59-54.28-32.78z"/><path class="c3" d="m585.94 334.72a16.365 16.365 0 1 1-32.73 0 16.365 16.365 0 0 1 32.73 0z"/></g><g aria-label="s"><path class="c3" d="m747.16 328.11a14.32 14.32 0 1 1-28.64 0 14.32 14.32 0 0 1 28.64 0z"/><path class="c1" d="m751.22 384.28c0 16.45-19.32 25.1-19.32 25.1s7.19-3.47 7.19-10.99c0-9.33-14.52-12.74-34.64-25.67-19.2-12.33-26.59-20.36-26.59-35.39 0-12.17 10.49-18.42 10.49-18.42s-2.7 4.6-2.7 9.66c0 21.27 65.57 21.27 65.57 55.7zm-71.15-5.04v31.2c0-4.35 4.5-4.03 10.45-2.39a63.07 63.07 0 0 0 17.66 2.38c-13.78 0-24-13.3-28.1-31.2z"/></g></g></g></svg>
