<svg xmlns="http://www.w3.org/2000/svg" width="148.4" height="40.25" viewBox="0 0 39.26 10.65"><path d="M256.61 373.15c-15.4 0-29.9 9-27.6 19.93.25 1.06.8 2.34 1.62 3.54a9.88 9.88 0 0 0 3.66 3.71c1.33.68 0-1.5-.2-1.88a10.46 10.46 0 0 1-2.95-2.69 5.1 5.1 0 0 1-.56-1.36c-2.22-10.54 11.86-19.29 26.67-19.29 5.12 0 12.25 1.54 16.43 5.55.6.6 1.1 1.28 1.58 1.96a14.25 14.25 0 0 1 2.09 7.43c.04 2.3-.39 4.4-1.03 6.27-5.59-.17-12.46-.09-18.6.6a85.55 85.55 0 0 1 2.81-6.4c1.75-2.27 2.9-4.74 3-6.1.08-.52-.1-1.41-.48-1.67-.21-.13-.6-.13-.77.09-1.02 1.53-2.38 4.35-3.5 6.6a8.4 8.4 0 0 1-4.86 3.42c-.55.17.85 2 1.2 1.92.5-.21 1.06-.47 1.53-.76l-1.32 3.15c-8.75 1.11-15.53 3.41-14.64 7.68.22.9.6 1.7 1.07 2.4 2.26 3.92 8.45 5.28 12.67 5.28 9.22 0 19.76-5.12 23.34-14.42 1.97.08 3.85.2 5.57.35a4.66 4.66 0 0 0-.75 2.42 3.75 3.75 0 0 0 3.84 3.63c2.69 0 5.28-1.68 6.86-2.96.01.31.04.62.1.91.13.64.98 1.67 1.7 1.67 1.58 0 4.14-3.16 4.87-4.7 1.92 1.58 4.78.73 6.02-.04.47-.3-.13-1.58-.73-1.36-1.15.42-3.07 1.15-4.74.25a3 3 0 0 0 .26-1.07c-.04-.3-.68-1.87-1.2-1.23-.38.42-.5.94-.5 1.5v.12c-.9 1.66-3.08 4.4-4.57 4.7a8.1 8.1 0 0 1 1.7-4.23c.47-.56-.6-2.22-1.06-1.7a7.02 7.02 0 0 0-1.45 2.55c-2.07 1.72-4.89 3.88-8.24 3.88a1.3 1.3 0 0 1-1.32-1.28c3.5-.12 6.06-1.83 6.06-3.4 0-1.25-1.24-2.44-2.35-2.44-1.08 0-2.2.49-3.14 1.25l-.02-.01c-1.62-.17-3.8-.39-6.31-.52.47-1.79.77-3.7.68-5.8a16.08 16.08 0 0 0-2.69-8.06c-.6-.94-1.28-1.84-2.04-2.69-4.36-4.74-12.2-6.7-17.7-6.7zm83.71 2.3c-3.33 0-8.28.64-13.7 1.54l-2.64.47c-.04-.13-.13-.17-.26-.26-.12-.04-.3-.04-.38.09l-.21.3-.69.13c-4.26.72-7.42 1.32-11.47 1.92l-.52.08h-.5c-4.27-.3-9.56.68-10.33 1.07-.34.25.72 1.79.94 1.79 2.9.21 3.4 0 8.06-.64 5.16-.3 7.34 1.24 9.22 5.84l-9.1 21.13c-.38.68-1.06 2.43-1.19 2.94-.04.04 1.16 2.09 1.41 1.4 2.3-3.83 10.33-15.01 10.28-23.89l1.28-2.73c1.03-2.09 2.1-4.1 3.08-6.01l.8-1.28 1.12-.22c.68-.12 1.4-.17 2.09-.3 5.46-.93 10.37-1.57 13.6-1.57 1.2 0 2.1.12 2.7.34-.05.17-.13.38-.3.64-.17.3 1.02 2.04 1.36 1.58.81-1.16.26-2.6-1.02-3.72-.73-.47-2.1-.64-3.63-.64zm-18.47 4.36c-.86 1.7-1.8 3.5-2.65 5.29l-.68 1.45c-1.41-2.65-2.18-3.42-4.74-5.42l1.07-.17zm19.96 1.57c-1.19 0-2.98 3.89-3.58 5.04-1.85 3.75-3.6 8.18-4.83 11.67a16.4 16.4 0 0 1-4.47-.06c-.26-.86-.9-2.01-1.84-2.48a.91.91 0 0 0-1.23.47c-.09.21-.13.47-.05.77-1.45.8-2.47 2.69-2.13 4.3.21.9 1.32 2.74 2.48 2.74 1.28 0 2.6-1.62 2.9-4.27 1 .24 2.45.28 3.74.2-.46 1.4-.83 2.57-.97 3.21-.08.35.9 1.71 1.2 1.2 1.36-2.13 4.13-5.42 7.38-7.34a9.56 9.56 0 0 1-1.71 3.5c-2.26.77-3.75 1.62-3.75 2.47 0 .52.9 1.28 1.62 1.28.94 0 2.39-.93 3.5-2.34 1.6-.5 3.92-1.08 5.75-1.46a4.3 4.3 0 0 0-.17 1.71c.18.9 1.46 2.3 2.44 2.3 1.05 0 2.79-1.1 4.27-2.21 0 .1 0 .2.04.3.17.85 1.23 1.7 2.09 1.7 1.15 0 2.56-1.45 3.45-2.3.04.21.13.43.26.6a2.62 2.62 0 0 0 2.47 1.66c1.49 0 4.34-2.09 5.74-3.6.26.35.6.69 1 1.04-1.87 1.02-3.37 2.13-3.37 3.2 0 .56.81 2 1.88 2 1.54 0 4.65-1.32 4.65-2.98 0-.6-.3-1.11-.68-1.58 2.3-1.1 4.95-2 7.04-2.64.72-.34-.43-1.37-1.07-1.28-.94.17-4.43 1.28-7.38 2.68-.64-.46-1.2-.85-1.2-1.15 0-1.4 3.25-3.16 4.7-3.33.6-.12-.34-1.7-.94-1.7-1.12.04-4.96 1.81-5.18 4.07-1.44 1.15-4.66 3.65-6.12 3.65-.18 0-.26 0-.35-.09-.21-1.1.99-3.24 1.8-4.69.42-.34-.9-2.18-1.33-1.62l-.6.85a2.9 2.9 0 0 0-1.87-.9c-1.24 0-2.22.82-2.99 1.67-.21.25-.5.61-.78 1.03-2.03 1.8-4.77 3.75-6.39 3.75 0-1.4 1.28-3.67 2.14-5.2.25-.47-1.07-2.05-1.37-1.54-.42.6-1.02 1.65-1.52 2.77h-.01c-1.24.21-3.5.68-5.17 1.15.3-.85.73-1.92.6-2.6-.17-.72-.85-1.7-1.7-1.7-1.12 0-2.82 1.53-3.89 2.34 3.84-5.38 7.68-11.94 7.17-14.38-.17-.64-.85-1.88-1.66-1.88zm.26 2.1c-.08 1.45-2.77 7.12-5.25 10.58 1.8-4.4 4.57-10.07 5.25-10.58zm8.49 7.76a.29.29 0 0 0-.21.09c-.51.55-.9 1.28-1.24 1.83-.3.47.81 2.05 1.37 1.54.55-.56.8-1.41 1.19-1.88.34-.34-.57-1.59-1.11-1.58zm-32.77 1.24c-.47 2.9-3.15 8.79-5.03 11.6.98-2.34 4.14-9.51 5.03-11.6zm9.6 4.65c.13.08.17.25.26.51-.21-.08-.34-.13-.47-.21.09-.34.21-.3.21-.3zm-39.53.21c.17-.01.34 0 .5.04.42.47-1.37 2.18-3.63 2.4.37-.79 1.92-2.32 3.13-2.44zm70.17.13c.25 0 .5.13.72.26-2.3 2.77-4 4.6-4.95 4.86.17-1.84 2.78-5.12 4.23-5.12zm-82.52.6c-4.3 8.62-15.19 12.54-22.66 12.54-2.34 0-7.89-.72-10.02-3.54a3.2 3.2 0 0 1-.39-1.07c-.68-3.2 4.57-5.33 11.95-6.57a26.32 26.32 0 0 0-1.24 3.84c-.17 1.07.43 1.54.86 1.84.34.21.64.38.68.08 0-.9.85-3.07 2.09-6.14 5.8-.77 12.59-1.07 18.73-.98zm51.28.34c.3.3.52.51.73.64-.47 1.83-1.36 3.07-2.05 3.07-.3 0-.5-.21-.5-.6 0-1.02.72-2.47 1.82-3.11zm41.95 4.27c.12.12.2.25.2.34 0 .85-2.47 1.87-3.28 1.96.64-.81 1.75-1.58 3.08-2.3z" fill="#fff" style="white-space:pre" transform="translate(-60.53 -98.73) scale(.26458)"/></svg>